<svg xmlns="http://www.w3.org/2000/svg" viewBox="0 0 21 17">
  <path
    d="M15.7,6.3c.4-.4.8-.8,1.1-1.1-.5-.3-1.1-.8-1.5-1.1-.9,1.2-1.9,2.6-2.8,3.8-.9-1.2-1.9-2.6-2.8-3.8-.5.4-1,.8-1.5,1.1,1.1,1,2.3,2.3,3.4,3.4-1,1.1-2.3,2.5-3.4,3.4.5.3,1.1.8,1.5,1.1.9-1.2,1.9-2.6,2.8-3.8.9,1.2,1.9,2.6,2.8,3.8.5-.3,1.1-.8,1.5-1.1-1.1-1-2.3-2.3-3.4-3.4.7-.8,1.5-1.6,2.2-2.4Z" />
  <path
    d="M20.5,13.5c0-4,0-8.4,0-12.4H6.9S.8,8,.8,8v1.3l6.1,6.8s0,0,0,0h0s13.6,0,13.6,0c0-.6,0-1.9,0-2.6ZM19,6.8c0,2.6,0,5.4,0,8-2,0-8.2,0-11.6,0-1.6-1.9-3.4-4.3-5-6.1,1.7-1.9,3.4-4.3,5-6.2,3.6,0,9.6,0,11.7,0,0,1.4,0,3,0,4.4Z" />
</svg>