<svg width="512" height="512" viewBox="0 0 512 512" fill="none" xmlns="http://www.w3.org/2000/svg">
<rect width="512" height="512" fill="#49A465"/>
<path d="M237.228 436H74.5076C74.8276 422.88 75.1476 409.76 75.4676 396.64C75.7876 383.52 75.9476 369.76 75.9476 355.36C76.2676 340.96 76.4276 325.6 76.4276 309.28C76.4276 292.96 76.4276 275.2 76.4276 256C76.4276 236.8 76.4276 219.04 76.4276 202.72C76.4276 186.4 76.2676 171.04 75.9476 156.64C75.9476 142.24 75.7876 128.48 75.4676 115.36C75.1476 101.92 74.8276 88.8 74.5076 76H237.228C236.908 88.16 236.588 101.12 236.268 114.88C235.948 128.32 235.628 142.4 235.308 157.12C235.308 171.52 235.308 186.4 235.308 201.76C235.308 216.8 235.308 232 235.308 247.36C235.308 265.28 235.308 282.72 235.308 299.68C235.308 316.32 235.308 332.64 235.308 348.64C235.628 364.32 235.948 379.52 236.268 394.24C236.588 408.64 236.908 422.56 237.228 436ZM452.268 436H304.428C296.108 436 290.028 434.72 286.188 432.16C282.348 429.28 279.788 424.32 278.508 417.28C276.908 411.2 274.988 404.64 272.748 397.6C270.828 390.24 268.748 382.72 266.508 375.04C264.588 367.36 262.348 359.84 259.788 352.48C257.548 345.12 254.988 337.92 252.108 330.88C249.548 323.84 246.828 317.44 243.948 311.68C241.068 305.6 238.028 300.48 234.828 296.32L262.188 304.96H215.148V233.44H254.028V267.04L223.788 268C227.628 258.72 231.628 248.96 235.788 238.72C239.948 228.48 244.108 218.4 248.268 208.48C252.428 198.24 255.948 188.8 258.828 180.16C264.268 163.84 268.588 149.28 271.788 136.48C275.308 123.36 278.348 111.84 280.908 101.92C283.468 92 285.548 83.36 287.148 76H452.748C448.588 86.88 444.268 98.88 439.788 112C435.628 125.12 431.308 138.56 426.828 152.32C422.348 165.76 417.388 179.04 411.948 192.16C406.508 204.96 400.268 216.64 393.228 227.2C386.188 237.76 378.188 246.4 369.228 253.12C360.588 259.52 350.668 263.36 339.468 264.64L342.828 255.04V270.88L338.988 261.76C353.388 263.04 365.388 265.6 374.988 269.44C384.908 273.28 392.908 278.24 398.988 284.32C405.388 290.4 410.348 297.28 413.868 304.96C417.388 312.64 420.268 320.96 422.508 329.92C426.668 344 430.188 356.64 433.068 367.84C436.268 379.04 438.988 389.12 441.228 398.08C443.788 406.72 445.868 414.24 447.468 420.64C449.388 426.72 450.988 431.84 452.268 436Z" fill="#D7D760"/>
</svg>
